<svg xmlns="http://www.w3.org/2000/svg" width="50" height="50" viewBox="-3 -3 22 22" id="icon"><path d="M5.887 5.434c0-.33.294-.56.67-.56.556 0 .98.408.98.408l.352-.69s-.376-.415-1.103-.48v-.607H6.25v.62c-.695.118-1.177.644-1.177 1.322 0 1.414 2.115 1.335 2.115 2.125 0 .38-.307.566-.645.566-.626 0-1.108-.494-1.108-.494l-.437.638s.444.52 1.25.62v.604h.54V8.9c.763-.104 1.207-.677 1.207-1.348 0-1.473-2.108-1.336-2.108-2.118zM13 10.5v-8a1 1 0 0 0-1-1H1a1 1 0 0 0-1 1v8a1 1 0 0 0 1 1h11a1 1 0 0 0 1-1zm-1.5 0h-10A.5.5 0 0 1 1 10V3a.5.5 0 0 1 .5-.5h10c.274 0 .5.224.5.5v7a.5.5 0 0 1-.5.5zm3.5-6h-1.5a.5.5 0 0 1 .5.5v.5h.5c.274 0 .5.224.5.5v7a.5.5 0 0 1-.5.5h-10A.5.5 0 0 1 4 13v-.5H3v1a1 1 0 0 0 1 1h11a1 1 0 0 0 1-1v-8a1 1 0 0 0-1-1z"/></svg>